Coordinates
version=1
nRows=19
nColumns=34
inDegrees=yes

Units are S.I. units (second, meters, Newtons, ...)
If the header above contains a line with 'inDegrees', this indicates whether rotational values are in degrees (yes) or radians (no).

endheader
time	pelvis_tilt	pelvis_list	pelvis_rotation	pelvis_tx	pelvis_ty	pelvis_tz	hip_flexion_r	hip_adduction_r	hip_rotation_r	knee_angle_r	ankle_angle_r	subtalar_angle_r	mtp_angle_r	hip_flexion_l	hip_adduction_l	hip_rotation_l	knee_angle_l	ankle_angle_l	subtalar_angle_l	mtp_angle_l	lumbar_extension	lumbar_bending	lumbar_rotation	arm_flex_r	arm_add_r	arm_rot_r	elbow_flex_r	pro_sup_r	arm_flex_l	arm_add_l	arm_rot_l	elbow_flex_l	pro_sup_l
      1.10000000	     22.11085098	    -32.57365829	    -11.38352190	      1.48729264	      1.00843667	     -0.22904862	    -30.00000025	     30.00000025	      2.79030713	      0.00000000	    -15.20173386	    -35.00000000	      0.00000000	     -7.75055911	    -32.08221372	     -3.66975343	     59.73971049	     33.80099563	     14.20402489	      0.00000000	    -77.79155898	     19.86161970	     14.28511796	     24.35626724	      0.04543029	     -2.07417667	     29.79743067	    119.74817918	     29.52091917	     -1.01383364	     -3.34366433	     43.51838486	    119.70533278
      1.11666670	     21.93525716	    -32.14302626	    -10.84274551	      1.49407780	      1.00922947	     -0.22648696	    -30.00000025	     30.00000025	      1.83871320	      0.00000000	    -15.80954520	    -35.00000000	      0.00000000	     -6.83285104	    -31.82391023	     -2.48197427	     59.74546602	     33.88960342	     13.67058644	      0.00000000	    -77.75846505	     20.32730001	     13.92378820	     24.53565372	     -0.00889099	     -1.29754059	     29.65983104	    119.74817918	     28.99500264	     -0.78519031	     -4.39211074	     43.01190667	    119.64186522
      1.13333330	     21.70716173	    -31.80411439	    -10.50264132	      1.50081687	      1.00982851	     -0.22419418	    -30.00000025	     30.00000025	      1.28325076	      0.00000000	    -16.04098608	    -35.00000000	      0.00000000	     -5.81432377	    -31.59477567	     -1.41982958	     59.65914519	     33.98640864	     13.23994008	      0.00000000	    -77.86878857	     20.70989926	     13.63831327	     24.80985871	     -0.06722343	     -0.60954552	     29.57285220	    119.74817918	     28.38697536	     -0.59204577	     -5.31712797	     42.69163068	    119.59899188
      1.15000000	     21.35266521	    -31.55021852	    -10.48570311	      1.50746741	      1.01005316	     -0.22126966	    -30.00000025	     30.00000025	      1.17247332	      0.00000000	    -16.10781539	    -35.00000000	      0.00000000	     -4.73903649	    -31.63517948	     -1.02258793	     59.39640282	     34.09021798	     13.28846002	      0.00000000	    -78.05950154	     20.72601029	     13.79307880	     25.05318969	     -0.11814440	     -0.54128048	     29.61203696	    119.74817918	     27.92074034	     -0.50731195	     -5.41311850	     42.51008820	    119.59951877
      1.16666670	     21.64032816	    -31.32184333	     -9.89154802	      1.51349727	      1.00989860	     -0.21914432	    -30.00000025	     30.00000025	      0.33307556	      0.81569282	    -16.34517815	    -35.00000000	      0.00000000	     -3.80822745	    -31.43852953	     -0.11143776	     59.11555517	     34.91139705	     13.64124124	      0.00000000	    -78.65155097	     21.04245797	     13.67193216	     25.31172915	     -0.17538879	     -0.30540387	     29.65428151	    119.74817918	     27.53445118	     -0.37505005	     -5.85913471	     42.05728521	    119.57218781
      1.18333330	     23.60560803	    -32.21609674	     -9.85901996	      1.51640812	      1.01042080	     -0.21621494	    -30.00000025	     30.00000025	     -1.51153505	      6.23142636	    -13.88469377	    -35.00000000	      0.00000000	     -5.49620774	    -32.57326695	     -1.93682242	     58.72011520	     35.99366610	     15.52678851	      0.00000000	    -80.02069708	     20.21569203	     13.99293022	     25.65066666	      0.01163732	      0.71711051	     29.07912352	    119.74817918	     26.98884093	     -0.20122840	     -7.54190852	     41.11919821	    119.43377551
      1.20000000	     24.19410352	    -32.52399708	     -9.93005660	      1.52167041	      1.01085549	     -0.21239865	    -30.00000025	     30.00000025	     -1.88699177	      8.54632963	    -13.09940231	    -35.00000000	      0.00000000	     -5.17072007	    -33.55475767	     -3.42253209	     58.32777742	     37.28279620	     18.42927813	      0.00000000	    -80.76161811	     19.73045122	     14.26849306	     26.05093089	      0.03404893	      1.47889664	     28.75408746	    119.74817918	     26.47902519	     -0.20277668	     -8.34345737	     40.58202421	    119.40207361
      1.21666670	     24.48177001	    -32.62534931	     -9.89278337	      1.52767492	      1.00988384	     -0.20882891	    -30.00000025	     30.00000025	     -1.95973239	      9.95557862	    -12.41907102	    -35.00000000	      0.00000000	     -4.19483340	    -34.40129059	     -4.69189954	     57.84625702	     38.37783039	     20.97835915	      0.00000000	    -81.23003134	     19.43223661	     14.40462977	     26.34820274	      0.09418840	      2.00348677	     28.55773995	    119.74817918	     25.96537387	     -0.25929419	     -8.92990315	     39.88543351	    119.34750972
      1.23333330	     24.80804397	    -32.75474481	     -9.87335877	      1.53276648	      1.00715187	     -0.20567889	    -30.00000025	     30.00000025	     -1.87474526	     11.40171350	    -11.12279536	    -35.00000000	      0.00000000	     -3.14677500	    -35.41804245	     -6.35940768	     57.43564071	     39.65162065	     23.96826616	      0.00000000	    -81.60106830	     19.09878196	     14.48374976	     26.63450859	      0.23557858	      2.39466219	     28.46276741	    119.74817918	     25.45610697	     -0.44450136	     -9.33058808	     39.07100236	    119.26948789
      1.25000000	     25.24315676	    -33.06872574	    -10.12744632	      1.53642267	      1.00366050	     -0.20257852	    -30.00000025	     30.00000025	     -1.32100126	     13.36215497	     -9.14067294	    -35.00000000	      0.00000000	     -2.46096336	    -36.82100276	     -8.94967615	     57.10039956	     41.06960208	     27.68082807	      0.00000000	    -81.95076329	     18.50591546	     14.77484605	     26.93861799	      0.30635381	      2.82758476	     28.21039985	    119.74817918	     24.96448736	     -0.60342395	     -9.63186572	     38.12518706	    119.14484376
      1.26666670	     25.74018555	    -33.48637500	    -10.61471566	      1.53924273	      1.00114121	     -0.19932831	    -30.00000025	     30.00000025	     -0.38822474	     15.72226330	     -6.51459551	    -35.00000000	      0.00000000	     -2.11407012	    -38.49869387	    -12.35368825	     56.81558810	     42.31824095	     31.74919297	      0.00000000	    -82.22474411	     17.63682612	     15.17471567	     27.28567343	      0.31565565	      3.36936236	     27.81186555	    119.74817918	     24.54411915	     -0.69363312	     -9.79342096	     37.08791749	    118.95507853
      1.28333330	     26.08525403	    -33.70926489	    -10.94226790	      1.54295353	      0.99998978	     -0.19606029	    -30.00000025	     30.00000025	      0.26365831	     17.63383604	     -3.25577968	    -35.00000000	      0.00000000	     -1.43536992	    -39.87927017	    -15.31260822	     56.56309211	     43.16575319	     35.00000000	      0.00000000	    -82.30254052	     16.90131395	     15.38238769	     27.51573320	      0.38258769	      3.81735698	     27.49870118	    119.74817918	     24.00339793	     -0.93136002	     -9.82341576	     35.98543364	    118.76997444
      1.30000000	     26.37759174	    -33.52087775	    -10.70518979	      1.54764574	      0.99987290	     -0.19373160	    -30.00000025	     30.00000025	      0.51410716	     18.94087445	      0.13804550	    -35.00000000	      0.00000000	     -0.06356288	    -40.21359237	    -16.36986948	     56.12714658	     42.76893916	     35.00000000	      0.00000000	    -82.35204455	     16.44204976	     15.27567018	     27.76776519	      0.52469415	      4.03964390	     27.39310564	    119.74817918	     23.62771782	     -1.25336472	     -9.82248514	     35.03827451	    118.67370329
      1.31666670	     26.47245321	    -33.00960708	    -10.38769416	      1.55332324	      0.99850641	     -0.19088585	    -30.00000025	     30.00000025	      0.75143057	     20.14031123	      3.08764004	    -35.00000000	      0.00000000	      1.57555412	    -40.11057838	    -16.99338666	     55.70360788	     42.22263052	     35.00000000	      0.00000000	    -82.02414719	     16.10995524	     14.97230160	     27.88491632	      0.61200081	      4.20650522	     27.20339353	    119.74817918	     23.22140407	     -1.55569997	     -9.75652537	     34.03534059	    118.60252828
      1.33333330	     26.58470569	    -32.38153017	     -9.99802055	      1.56002633	      0.99521718	     -0.18747081	    -30.00000025	     30.00000025	      0.64622273	     21.76934388	      5.08036362	    -35.00000000	      0.00000000	      3.17473683	    -39.76563323	    -17.29214706	     55.41956664	     41.66412811	     35.00000000	      0.00000000	    -81.45184578	     15.75804459	     14.54599554	     27.87314101	      0.75247696	      4.37781695	     26.93395950	    119.74817918	     22.78622667	     -1.90890560	     -9.64589698	     32.96737819	    118.53940536
      1.35000000	     26.63695809	    -31.87675831	     -9.83109771	      1.56779877	      0.99016886	     -0.18382363	    -29.70283582	     30.00000025	      0.60136750	     24.15521695	      4.94970886	    -35.00000000	      0.00000000	      4.69678319	    -39.36150545	    -17.27289555	     55.39714996	     41.49604650	     35.00000000	      0.00000000	    -80.96501552	     15.08464922	     14.38154304	     27.75584087	      0.65111310	      4.40256413	     26.84711013	    119.74817918	     22.24238255	     -2.19042218	     -9.65293710	     32.54089937	    118.52262521
      1.36666670	    -31.67444283	    -19.73862630	    -25.35114405	      1.57930349	      0.88049364	     -0.17842786	     47.60544331	     30.00000025	    -21.98079145	     50.68543232	     11.84188781	    -35.00000000	      0.00000000	     82.25436031	    -26.22109532	     15.76618119	     65.97758403	     33.75872366	     18.40502485	      0.00000000	    -18.59497644	     34.02929039	      6.74222437	     18.74258955	     -6.00653770	     10.50503065	     24.45037886	    119.58689746	     11.55903298	      3.94184724	     -8.04771101	     23.58005116	    114.55949291
      1.38333330	    -31.42456000	    -19.88891496	    -25.38561903	      1.58798476	      0.87415529	     -0.17600462	     47.86082507	     30.00000025	    -21.87739551	     53.29165207	      9.00031555	    -35.00000000	      0.00000000	     83.11442237	    -26.22850185	     15.39684116	     65.98755705	     34.61451588	     19.97220135	      0.00000000	    -18.42979872	     33.49716151	      7.22626269	     18.47954423	     -6.17211702	     11.10368734	     24.00767552	    119.53975332	     10.94330389	      3.92868588	     -8.14915871	     22.72451072	    113.92009538
      1.40000000	    -32.80437465	    -18.65498093	    -25.58525213	      1.59489759	      0.86490316	     -0.17493479	     50.76480427	     28.80736418	    -21.89414847	     56.92819185	      6.06857509	    -35.00000000	      0.00000000	     85.51100979	    -25.00475632	     15.11274605	     65.90263148	     35.13056457	     19.66708412	      0.00000000	    -14.74304080	     32.81699416	      6.63853526	     17.36196762	     -6.73353316	     12.19223504	     23.63050786	    118.87438373	      9.64283888	      4.06573963	     -7.30066508	     21.20051017	    111.64961821
